<?xml version="1.0" encoding="UTF-8"?>
<svg version="1.1" xmlns="http://www.w3.org/2000/svg" width="864" height="864">
<path d="M0 0 C285.12 0 570.24 0 864 0 C864 285.12 864 570.24 864 864 C578.88 864 293.76 864 0 864 C0 578.88 0 293.76 0 0 Z " fill="#111111" transform="translate(0,0)"/>
<path d="M0 0 C1.00756348 -0.02151123 2.01512695 -0.04302246 3.05322266 -0.06518555 C4.01405762 -0.06945557 4.97489258 -0.07372559 5.96484375 -0.078125 C6.82585693 -0.0874707 7.68687012 -0.09681641 8.57397461 -0.10644531 C11.0625 0.25 11.0625 0.25 13.29241943 1.74525452 C16.70100399 3.59684406 19.00470305 3.64649539 22.87231445 3.68237305 C23.86827385 3.69766052 23.86827385 3.69766052 24.88435364 3.71325684 C27.06491635 3.74329565 29.24503914 3.75263829 31.42578125 3.76171875 C32.94322662 3.77857229 34.46065808 3.79672345 35.97807312 3.81611633 C39.96135107 3.86354952 43.94457263 3.89340184 47.92803955 3.91955566 C51.99706149 3.94939509 56.0658893 3.99591375 60.13476562 4.04101562 C68.11058155 4.12697263 76.08641529 4.19435145 84.0625 4.25 C83.61859537 6.16981685 83.16486488 8.08736341 82.70703125 10.00390625 C82.45542236 11.0719751 82.20381348 12.14004395 81.94458008 13.24047852 C81.15077372 15.94882367 80.28099642 17.84956172 78.75 20.1875 C76.72846133 23.05549492 76.72846133 23.05549492 77.625 25.75 C78.099375 26.575 78.57375 27.4 79.0625 28.25 C79.805 30.0753125 79.805 30.0753125 80.5625 31.9375 C81.82841621 35.2508862 81.82841621 35.2508862 84.0625 37.25 C85.33155028 41.20645087 86.319456 45.16325798 87.0625 49.25 C87.7225 49.25 88.3825 49.25 89.0625 49.25 C90.89172865 57.53941591 91.42811374 65.52420291 91.4375 74 C91.46199219 75.17949219 91.48648438 76.35898437 91.51171875 77.57421875 C91.53515826 84.52012656 90.98716843 88.53203739 87.0625 94.25 C82.56727211 107.09830062 83.46747671 115.92260442 89.0625 128.25 C89.3925 128.58 89.7225 128.91 90.0625 129.25 C90.2162152 138.01176647 86.13290637 144.72226302 82.12255859 152.24658203 C81.01472632 154.34028808 79.93206438 156.44469236 78.86328125 158.55859375 C78.54141846 159.19466553 78.21955566 159.8307373 77.88793945 160.48608398 C76.94175571 162.41943734 76.94175571 162.41943734 76.0625 165.25 C74.99 165.86875 73.9175 166.4875 72.8125 167.125 C68.07970107 170.30273642 67.03527102 174.81834574 65.25 180.02734375 C63.94877635 183.55862503 62.2782973 186.38469343 60.1796875 189.48046875 C58.83971696 191.48795351 58.83971696 191.48795351 57.5625 194.9375 C55.90056642 198.60760333 53.89040169 200.42209831 51.0625 203.25 C47.11636015 208.90189063 45.90334975 214.44896803 47.0625 221.25 C49.02446672 227.46138772 51.80247086 232.14572509 57.60546875 235.296875 C61.69537847 236.88342186 65.90634339 237.75239915 70.20703125 238.57421875 C73.0625 239.25 73.0625 239.25 76.0625 241.25 C76.34996094 241.92289063 76.63742187 242.59578125 76.93359375 243.2890625 C77.91067539 245.47190548 77.91067539 245.47190548 80.34765625 246.0859375 C81.26417969 246.26382813 82.18070313 246.44171875 83.125 246.625 C92.98074247 249.04728261 99.08303196 255.11574734 106.34765625 261.921875 C109.44222848 264.57563766 112.58642996 266.34062349 116.1953125 268.18359375 C120.66921289 270.73877117 122.57212091 275.13554147 124.921875 279.52734375 C126.15540246 281.39030817 127.43019856 282.38937097 129.1875 283.75 C134.12339376 288.39848729 133.75968225 295.89082724 134.0625 302.25 C134.04292292 309.82633062 132.88311307 314.36059149 127.5 319.875 C124.13494895 322.58902358 120.49868826 323.45084901 116.33203125 324.37890625 C113.92277606 325.06092339 113.92277606 325.06092339 112.69091797 327.20898438 C110.77163454 329.614563 109.67667238 330.01176568 106.73828125 330.77734375 C105.4538916 331.12587402 105.4538916 331.12587402 104.14355469 331.48144531 C103.22993164 331.71444336 102.31630859 331.94744141 101.375 332.1875 C99.46956699 332.70002286 97.56462259 333.21436549 95.66015625 333.73046875 C94.71414551 333.9836084 93.76813477 334.23674805 92.79345703 334.49755859 C87.71312705 335.89730623 82.71423844 337.54489012 77.703125 339.171875 C69.39169814 341.63319883 61.90911411 342.53853821 53.22802734 342.49291992 C51.50190971 342.49576744 51.50190971 342.49576744 49.74092102 342.49867249 C45.96002253 342.502359 42.17931874 342.49170659 38.3984375 342.48046875 C35.76006086 342.47927568 33.12168378 342.47882406 30.48330688 342.4790802 C24.96410735 342.47814657 19.44496312 342.46950236 13.92578125 342.45581055 C7.55858928 342.44007269 1.19145773 342.43481318 -5.17575228 342.4355461 C-11.32189331 342.43615785 -17.46801164 342.43093057 -23.61414719 342.42275429 C-26.22081764 342.41957605 -28.82748985 342.41760219 -31.43416214 342.41686058 C-35.07674406 342.41468902 -38.71925071 342.40592749 -42.36181641 342.39526367 C-43.43524796 342.39571686 -44.5086795 342.39617004 -45.61463928 342.39663696 C-59.60100655 342.33685983 -59.60100655 342.33685983 -65.58203125 338.94140625 C-71.38162672 335.89204403 -77.35688062 334.03910946 -83.625 332.1875 C-84.76678711 331.84098389 -85.90857422 331.49446777 -87.08496094 331.13745117 C-93.2523184 329.28155772 -99.43203841 327.5894109 -105.6875 326.0625 C-112.52897988 324.30348469 -115.97623024 322.19190464 -119.9375 316.25 C-120.38467509 312.1196921 -120.26152641 307.9643127 -120.25 303.8125 C-120.26611328 302.68650391 -120.28222656 301.56050781 -120.29882812 300.40039062 C-120.30427065 290.93584492 -119.64230714 278.67822054 -112.9375 271.25 C-109.41758691 268.3602649 -105.70615991 265.80245803 -101.9375 263.25 C-97.94454544 260.44686523 -94.53400246 258.03487166 -91.5625 254.125 C-88.43042513 250.69463229 -85.78482329 249.77101247 -81.48046875 248.2578125 C-78.99138336 247.2713547 -77.11190037 246.10619195 -74.9375 244.5625 C-71.11704261 242.00519586 -67.87555219 241.69093385 -63.33203125 241.68359375 C-60.74734553 241.41330231 -60.74734553 241.41330231 -58.5390625 239.3125 C-55.47701365 236.88492974 -53.32168714 236.46520275 -49.5 235.8125 C-43.8453343 234.61632072 -40.68009953 233.7006589 -36.9375 229.25 C-33.78815839 222.23555732 -33.75791135 213.11550646 -36.125 205.8125 C-36.71207652 204.28498812 -37.31836474 202.76480128 -37.9375 201.25 C-38.33582031 200.19425781 -38.73414063 199.13851562 -39.14453125 198.05078125 C-40.00078268 195.78210298 -40.87171532 193.51890713 -41.7578125 191.26171875 C-42.42235169 189.5651634 -43.0739355 187.86295404 -43.6796875 186.14453125 C-45.35326312 181.63000936 -48.08805992 178.51821514 -51.31640625 175.046875 C-53.52693329 172.59665226 -54.84914599 170.56263725 -55.75 167.375 C-57.8721796 161.79031684 -61.92371162 159.13292832 -66.9375 156.25 C-71.89783895 153.02221963 -73.4351768 149.71916078 -75.25 144.3125 C-75.5078125 143.56411865 -75.765625 142.8157373 -76.03125 142.04467773 C-78.12835027 135.52660716 -79.07356 129.07728362 -77.9375 122.25 C-77.2775 121.59 -76.6175 120.93 -75.9375 120.25 C-75.61850485 117.88044614 -75.61850485 117.88044614 -75.6875 115.25 C-75.68234375 114.363125 -75.6771875 113.47625 -75.671875 112.5625 C-75.71697138 110.05599761 -75.71697138 110.05599761 -77.9375 108.25 C-78.18473816 106.25883484 -78.18473816 106.25883484 -78.18041992 103.7878418 C-78.18503487 102.40081306 -78.18503487 102.40081306 -78.18974304 100.98576355 C-78.18255753 99.98370377 -78.17537201 98.98164398 -78.16796875 97.94921875 C-78.16751053 96.9206929 -78.16705231 95.89216705 -78.1665802 94.83247375 C-78.16355477 92.65270843 -78.15565985 90.47294533 -78.14331055 88.29321289 C-78.1251319 84.961673 -78.12280033 81.63041228 -78.12304688 78.29882812 C-78.11812863 76.18228927 -78.11229898 74.0657523 -78.10546875 71.94921875 C-78.10435593 70.95323166 -78.1032431 69.95724457 -78.10209656 68.93107605 C-78.09571671 67.99693375 -78.08933685 67.06279144 -78.08276367 66.1003418 C-78.07704597 64.87362007 -78.07704597 64.87362007 -78.07121277 63.62211609 C-77.92838551 61.08830545 -77.49037492 58.72409506 -76.9375 56.25 C-76.2775 56.25 -75.6175 56.25 -74.9375 56.25 C-73.96865422 51.58582211 -73.24988033 46.89627043 -72.53515625 42.1875 C-71.95703982 39.34603887 -71.10124724 36.898864 -69.9375 34.25 C-69.2775 34.25 -68.6175 34.25 -67.9375 34.25 C-67.67453125 33.51652344 -67.4115625 32.78304687 -67.140625 32.02734375 C-65.18429226 27.51126396 -62.07519532 24.00331908 -58.9375 20.25 C-58.45023437 19.65316406 -57.96296875 19.05632812 -57.4609375 18.44140625 C-54.08257364 14.65726126 -50.87845039 13.28255596 -46.0390625 11.890625 C-42.2636299 10.73974963 -39.34997616 8.54998266 -36.1875 6.25 C-25.15883208 -0.53687257 -12.53776231 0.15933691 0 0 Z " fill="#FEFEFE" transform="translate(425.9375,258.75)"/>
<path d="M0 0 C1.43573971 2.21403631 1.95292987 4.1519121 2.53515625 6.7265625 C3.55676775 10.9168086 4.92430861 14.43694934 6.84765625 18.2890625 C10.72659389 27.16519008 10.14962769 37.86542679 8.57421875 47.296875 C8.43757812 48.11929688 8.3009375 48.94171875 8.16015625 49.7890625 C8.49015625 50.1190625 8.82015625 50.4490625 9.16015625 50.7890625 C9.28390625 50.0053125 9.40765625 49.2215625 9.53515625 48.4140625 C10.16015625 45.7890625 10.16015625 45.7890625 12.16015625 43.7890625 C14.9368471 43.43307649 16.49537278 43.3051509 18.796875 44.98046875 C21.53180886 48.6087621 20.62272431 53.46770296 20.16015625 57.7890625 C18.78515625 61.4140625 18.78515625 61.4140625 17.16015625 64.7890625 C16.81638122 66.32405797 16.50516643 67.86661933 16.22265625 69.4140625 C15.35777728 73.49629124 14.26084454 75.85156834 11.16015625 78.7890625 C9.81278883 79.55120973 8.45796143 80.30025455 7.09765625 81.0390625 C3.0260209 83.48204371 2.2173272 85.44523858 1.05859375 89.9296875 C-0.15014396 93.77662664 -1.89861736 97.25877253 -3.71484375 100.8515625 C-4.06901367 101.55474609 -4.42318359 102.25792969 -4.78808594 102.98242188 C-6.89753821 107.10800503 -9.18692341 111.0018584 -11.76171875 114.85546875 C-13.58574392 118.12681825 -14.58881058 121.69423932 -15.65234375 125.2734375 C-16.83984375 127.7890625 -16.83984375 127.7890625 -19.4921875 129.49609375 C-22.03219568 131.4871364 -22.03219568 131.4871364 -22.05126953 133.85791016 C-21.89608186 136.48878536 -21.65303968 139.10313451 -21.40234375 141.7265625 C-21.06395717 148.48210518 -21.21586588 153.37851244 -25.66577148 158.70556641 C-30.20524777 163.34200772 -34.79115405 166.95065719 -40.99609375 169.09765625 C-44.35543284 170.35740841 -46.27474947 172.65887395 -47.83984375 175.7890625 C-52.46521215 176.85645521 -55.69218154 177.25524003 -59.83984375 174.7890625 C-61.22561298 173.16573283 -62.56625643 171.50181785 -63.83984375 169.7890625 C-64.49984375 169.4590625 -65.15984375 169.1290625 -65.83984375 168.7890625 C-65.83984375 168.1290625 -65.83984375 167.4690625 -65.83984375 166.7890625 C-66.66484375 166.5828125 -67.48984375 166.3765625 -68.33984375 166.1640625 C-72.13790338 164.67196765 -74.75940979 162.74926925 -77.94140625 160.25 C-80.13445266 158.562347 -82.44368683 157.168668 -84.83984375 155.7890625 C-85.83984375 154.7890625 -85.83984375 154.7890625 -85.92163086 152.36816406 C-85.90366455 151.3159668 -85.88569824 150.26376953 -85.8671875 149.1796875 C-85.84881836 147.45878906 -85.84881836 147.45878906 -85.83007812 145.703125 C-85.79514585 143.27597871 -85.75613653 140.8488874 -85.71289062 138.421875 C-85.69645508 136.69324219 -85.69645508 136.69324219 -85.6796875 134.9296875 C-85.66284912 133.87297852 -85.64601074 132.81626953 -85.62866211 131.72753906 C-85.95579658 127.17564248 -87.27947832 123.97434584 -90.51953125 120.7734375 C-91.03467285 120.24878906 -91.54981445 119.72414063 -92.08056641 119.18359375 C-92.61987793 118.64089844 -93.15918945 118.09820312 -93.71484375 117.5390625 C-98.40965325 112.64880921 -101.72307904 108.31921245 -103.83984375 101.7890625 C-104.23171875 100.9640625 -104.62359375 100.1390625 -105.02734375 99.2890625 C-105.82853726 96.82385169 -105.99158381 94.86122152 -106.15234375 92.2890625 C-106.48975704 88.78112781 -106.76087749 87.89059054 -109.02734375 84.9765625 C-112.87545125 81.98359 -116.86761077 79.34996614 -121.08984375 76.9140625 C-125.89715915 72.92261002 -125.28655772 65.54857011 -125.83984375 59.7890625 C-126.16803293 58.12137525 -126.50058137 56.45453238 -126.83984375 54.7890625 C-127.49142746 47.94743354 -127.49142746 47.94743354 -125.71484375 44.7890625 C-122.84272563 43.25726617 -121.04709245 43.27590271 -117.83984375 43.7890625 C-116.12170646 45.40261752 -114.44827754 47.06613003 -112.83984375 48.7890625 C-112.78973145 47.78117676 -112.73961914 46.77329102 -112.68798828 45.73486328 C-112.49787322 41.95108899 -112.29793571 38.16788372 -112.09521484 34.38476562 C-112.00925271 32.75567044 -111.92586028 31.12643734 -111.84521484 29.49707031 C-110.70686811 6.58959904 -110.70686811 6.58959904 -106.83984375 0.7890625 C-99.07471224 -0.26058464 -91.3774857 0.94539602 -83.83984375 2.7890625 C-82.39751322 3.1201398 -80.95476646 3.44940651 -79.51171875 3.77734375 C-67.22936132 6.59430371 -67.22936132 6.59430371 -64.83984375 7.7890625 C-61.13813008 8.08534671 -57.42701973 8.0671905 -53.71484375 8.1015625 C-52.1834375 8.14506836 -52.1834375 8.14506836 -50.62109375 8.18945312 C-44.15597324 8.24346763 -39.19120084 7.59802634 -33.83984375 3.7890625 C-33.33211426 3.26441406 -32.82438477 2.73976563 -32.30126953 2.19921875 C-27.62135311 -2.31651751 -5.54900256 -3.65220975 0 0 Z " fill="#121212" transform="translate(485.83984375,335.2109375)"/>
<path d="M0 0 C1.32 0 2.64 0 4 0 C4 116.49 4 232.98 4 353 C2.68 353 1.36 353 0 353 C0 236.51 0 120.02 0 0 Z " fill="#000000" transform="translate(860,248)"/>
<path d="M0 0 C5.33560558 0.32337004 8.39676031 3.36429869 12 7 C12.90251385 8.2033518 13.79843035 9.41168142 14.6875 10.625 C18.06736791 14.79688056 22.35069262 15.7904267 27.390625 17.17578125 C30 18 30 18 32 20 C32.64263932 23.57021844 32.7038599 25.94725277 30.64453125 29.02734375 C28.33628579 31.6820808 25.90385474 34.15143991 23.33984375 36.55859375 C19.87140677 39.83187571 17.79406766 42.88711003 15.859375 47.265625 C15 49 15 49 13 51 C12.01 51 11.02 51 10 51 C9.67 51.66 9.34 52.32 9 53 C6.02931839 48.6147081 4.54058233 44.01508715 3 39 C2.34 39 1.68 39 1 39 C1 38.34 1 37.68 1 37 C0.34 37 -0.32 37 -1 37 C-2.82106994 33.68896375 -4.17746574 30.61102165 -5 26.9375 C-5.59024024 24.30869893 -6.07677424 22.88023219 -7.5625 20.5625 C-9.61610909 16.90171858 -9.96876248 13.17020857 -10 9 C-8.7500773 5.2502319 -7.23946038 4.18475235 -4 2 C-2.68 2 -1.36 2 0 2 C0 1.34 0 0.68 0 0 Z " fill="#111111" transform="translate(394,493)"/>
<path d="M0 0 C0.99 0 1.98 0 3 0 C3.5878125 0.928125 3.5878125 0.928125 4.1875 1.875 C6.94799281 5.11143984 9.88318922 5.19013558 14 6 C14 7.32 14 8.64 14 10 C12.33333333 11.66666667 10.66666667 13.33333333 9 15 C7.79407349 17.36160609 6.88561632 19.51771964 6 22 C5.4121875 23.60681641 5.4121875 23.60681641 4.8125 25.24609375 C2.93733298 30.43070733 1.10692242 35.6204245 -0.5625 40.875 C-1.96012053 45.15621691 -3.90110512 49.01933729 -6 53 C-6.99 53 -7.98 53 -9 53 C-10.01351664 51.34151823 -11.01120795 49.67334039 -12 48 C-12.763125 47.443125 -13.52625 46.88625 -14.3125 46.3125 C-17.66397808 43.42867002 -19.33897196 40.21929907 -21.515625 36.41015625 C-23.37040058 33.39858642 -25.36658467 31.34081362 -28 29 C-28.66 28.34 -29.32 27.68 -30 27 C-29.90625 24.58984375 -29.90625 24.58984375 -29 22 C-27.03125 20.19140625 -27.03125 20.19140625 -24.5 18.5625 C-23.6028125 17.9746875 -22.705625 17.386875 -21.78125 16.78125 C-20.8634375 16.1934375 -19.945625 15.605625 -19 15 C-17.33274745 13.85501933 -15.6660351 12.70925143 -14 11.5625 C-10.25326371 9 -10.25326371 9 -8 9 C-7.67 8.01 -7.34 7.02 -7 6 C-6.01 6 -5.02 6 -4 6 C-3.566875 5.071875 -3.566875 5.071875 -3.125 4.125 C-2 2 -2 2 0 0 Z " fill="#111111" transform="translate(468,494)"/>
<path d="M0 0 C0.99 0 1.98 0 3 0 C2.979375 0.804375 2.95875 1.60875 2.9375 2.4375 C2.70366379 4.93354885 2.70366379 4.93354885 4 6 C4.22907826 8.06923366 4.39543552 10.14547477 4.53515625 12.22265625 C4.62216797 13.48271484 4.70917969 14.74277344 4.79882812 16.04101562 C4.88681764 17.38150393 4.97470695 18.72199881 5.0625 20.0625 C5.15387529 21.40692976 5.24566675 22.75133131 5.33789062 24.09570312 C5.56270194 27.39687974 5.7832098 30.69828848 6 34 C5.34 34 4.68 34 4 34 C4 43.24 4 52.48 4 62 C3.01 62 2.02 62 1 62 C0.79375 60.989375 0.5875 59.97875 0.375 58.9375 C-0.83933138 53.96494597 -2.83325547 49.31006916 -4.87939453 44.63256836 C-6.80554717 40.065334 -7.5572879 35.94088562 -8 31 C-8.66 31 -9.32 31 -10 31 C-12.91881515 27.74760598 -14.39791695 25.04172077 -14.375 20.6875 C-13.50833168 15.08241686 -9.59313601 12.56838485 -5.390625 9.15234375 C-2.23728575 6.31330792 -1.19461766 4.01050215 0 0 Z " fill="#111111" transform="translate(420,535)"/>
<path d="M0 0 C0.99 0 1.98 0 3 0 C3 1.32 3 2.64 3 4 C4.1446875 4.0928125 4.1446875 4.0928125 5.3125 4.1875 C8 5 8 5 9.5 7.1875 C9.995 8.115625 10.49 9.04375 11 10 C11.886875 10.969375 12.77375 11.93875 13.6875 12.9375 C16 16 16 16 16.6875 18.75 C15.8233759 22.8349503 13.9536847 25.59083423 11.7265625 29.08984375 C6.95464341 37.13301054 3.58746213 45.79271965 2 55 C0.02 55.495 0.02 55.495 -2 56 C-2.05084645 49.14985332 -2.08579508 42.29975561 -2.10986328 35.44946289 C-2.11990049 33.12066835 -2.13353314 30.79188634 -2.15087891 28.46313477 C-2.17522727 25.10950621 -2.18650615 21.75604479 -2.1953125 18.40234375 C-2.20563507 17.36665756 -2.21595764 16.33097137 -2.22659302 15.26390076 C-2.2274396 9.76903406 -1.83946576 5.1906032 0 0 Z " fill="#111111" transform="translate(442,537)"/>
</svg>
